<svg width="250" height="48" viewBox="0 0 250 48" fill="none" xmlns="http://www.w3.org/2000/svg">
<path d="M53.7862 33.8125L57.3321 12.9251H62.7063L66.8893 24.0614L71.0447 12.9251H76.4189L79.9647 33.8125H74.5628L72.7622 21.7898L67.8312 33.8125H65.6705L60.9888 21.7898L59.1882 33.8125H53.7862ZM87.9378 26.6654C87.9378 27.1271 88.0209 27.5611 88.1871 27.9674C88.3533 28.3552 88.5749 28.6968 88.8519 28.9923C89.1474 29.2878 89.4891 29.5187 89.8769 29.6849C90.2832 29.8511 90.7172 29.9342 91.1789 29.9342C91.6221 29.9342 92.0377 29.8511 92.4255 29.6849C92.8318 29.5187 93.1735 29.2878 93.4505 28.9923C93.746 28.6968 93.9768 28.3552 94.143 27.9674C94.3277 27.5795 94.4201 27.164 94.4201 26.7208C94.4201 26.2775 94.3277 25.862 94.143 25.4742C93.9768 25.0679 93.746 24.717 93.4505 24.4215C93.1735 24.126 92.8318 23.8951 92.4255 23.7289C92.0377 23.5627 91.6221 23.4796 91.1789 23.4796C90.7172 23.4796 90.2832 23.5627 89.8769 23.7289C89.4891 23.8951 89.1474 24.126 88.8519 24.4215C88.5749 24.717 88.3533 25.0586 88.1871 25.4465C88.0209 25.8158 87.9378 26.2221 87.9378 26.6654ZM94.2538 19.6013H99.2956V33.8125H94.2538V32.2335C93.1827 33.5816 91.7329 34.2557 89.9046 34.2557C88.8704 34.2557 87.9193 34.0711 87.0513 33.7017C86.1833 33.3139 85.4261 32.7783 84.7797 32.095C84.1333 31.4116 83.6255 30.6083 83.2561 29.6849C82.9052 28.7615 82.7298 27.755 82.7298 26.6654C82.7298 25.6496 82.9052 24.6893 83.2561 23.7843C83.607 22.8609 84.0964 22.0576 84.7243 21.3742C85.3522 20.6909 86.1002 20.1554 86.9682 19.7675C87.8362 19.3612 88.7965 19.1581 89.8492 19.1581C91.6221 19.1581 93.0904 19.7768 94.2538 21.0141V19.6013ZM108.47 26.6377C108.47 27.0994 108.553 27.5334 108.719 27.9397C108.885 28.3275 109.107 28.6691 109.384 28.9646C109.679 29.2601 110.021 29.491 110.409 29.6572C110.815 29.8234 111.249 29.9065 111.711 29.9065C112.154 29.9065 112.57 29.8234 112.958 29.6572C113.364 29.491 113.705 29.2601 113.983 28.9646C114.278 28.6691 114.509 28.3275 114.675 27.9397C114.86 27.5334 114.952 27.1086 114.952 26.6654C114.952 26.2037 114.86 25.7789 114.675 25.3911C114.509 25.0032 114.278 24.6616 113.983 24.3661C113.687 24.0706 113.336 23.8397 112.93 23.6735C112.542 23.5073 112.136 23.4242 111.711 23.4242C111.268 23.4242 110.852 23.5165 110.464 23.7012C110.077 23.8674 109.735 24.0983 109.439 24.3938C109.144 24.6708 108.904 25.0032 108.719 25.3911C108.553 25.7789 108.47 26.1944 108.47 26.6377ZM119.717 19.6013V32.8429C119.717 33.6371 119.671 34.3481 119.578 34.976C119.486 35.6039 119.357 36.1579 119.191 36.6381C118.969 37.2476 118.618 37.8108 118.138 38.3279C117.676 38.8635 117.113 39.3252 116.448 39.7131C115.783 40.1009 115.026 40.4056 114.176 40.6272C113.345 40.8488 112.44 40.9596 111.462 40.9596C110.354 40.9596 109.338 40.8211 108.414 40.5441C107.491 40.2671 106.678 39.8793 105.977 39.3806C105.293 38.9005 104.73 38.3279 104.287 37.6631C103.844 37.0167 103.548 36.3057 103.4 35.53H109.052C109.402 36.4719 110.197 36.9428 111.434 36.9428C112.487 36.9428 113.29 36.6473 113.844 36.0564C114.417 35.4654 114.703 34.6436 114.703 33.5909V32.2335C114.333 32.5844 113.973 32.8799 113.622 33.1199C113.29 33.3416 112.948 33.5262 112.597 33.674C112.247 33.8217 111.877 33.9233 111.489 33.9787C111.101 34.0526 110.677 34.0895 110.215 34.0895C109.199 34.0895 108.267 33.9141 107.417 33.5632C106.568 33.2123 105.829 32.7229 105.201 32.095C104.591 31.4671 104.111 30.7191 103.76 29.8511C103.428 28.9646 103.262 27.9858 103.262 26.9147C103.262 25.8251 103.446 24.8185 103.816 23.8951C104.185 22.9533 104.684 22.1407 105.312 21.4574C105.958 20.7556 106.715 20.2108 107.583 19.8229C108.47 19.4166 109.43 19.2135 110.464 19.2135C112.145 19.2135 113.558 19.8414 114.703 21.0972V19.6013H119.717ZM129.254 19.6013V33.8125H124.24V19.6013H129.254ZM123.907 14.144C123.907 13.7562 123.981 13.396 124.129 13.0636C124.277 12.7127 124.48 12.408 124.738 12.1494C124.997 11.8909 125.292 11.6877 125.625 11.54C125.976 11.3923 126.345 11.3184 126.733 11.3184C127.121 11.3184 127.481 11.3923 127.813 11.54C128.164 11.6877 128.469 11.8909 128.727 12.1494C128.986 12.408 129.189 12.7127 129.337 13.0636C129.485 13.396 129.558 13.7562 129.558 14.144C129.558 14.5318 129.485 14.9012 129.337 15.2521C129.189 15.5845 128.986 15.88 128.727 16.1385C128.469 16.3971 128.164 16.6003 127.813 16.748C127.481 16.8957 127.121 16.9696 126.733 16.9696C126.345 16.9696 125.976 16.8957 125.625 16.748C125.292 16.6003 124.997 16.3971 124.738 16.1385C124.48 15.88 124.277 15.5845 124.129 15.2521C123.981 14.9012 123.907 14.5318 123.907 14.144ZM144.509 24.1999C143.641 23.6089 142.764 23.3134 141.877 23.3134C141.397 23.3134 140.945 23.3965 140.52 23.5627C140.114 23.7289 139.753 23.969 139.439 24.283C139.125 24.5785 138.876 24.9386 138.691 25.3634C138.525 25.7697 138.442 26.2314 138.442 26.7485C138.442 27.2471 138.525 27.7088 138.691 28.1336C138.876 28.5399 139.116 28.9 139.412 29.2139C139.726 29.5094 140.095 29.7403 140.52 29.9065C140.945 30.0727 141.397 30.1558 141.877 30.1558C142.819 30.1558 143.696 29.8326 144.509 29.1862V33.4524C143.272 33.9879 142.099 34.2557 140.991 34.2557C139.957 34.2557 138.969 34.0803 138.027 33.7294C137.103 33.3785 136.281 32.8799 135.561 32.2335C134.859 31.5686 134.296 30.7837 133.871 29.8788C133.447 28.9554 133.234 27.9304 133.234 26.8039C133.234 25.6773 133.437 24.6523 133.844 23.7289C134.25 22.7871 134.804 21.9837 135.506 21.3188C136.208 20.6355 137.039 20.1092 137.999 19.7398C138.978 19.352 140.021 19.1581 141.129 19.1581C142.348 19.1581 143.475 19.4166 144.509 19.9337V24.1999ZM148.006 33.8125L151.552 12.9251H156.926L161.109 24.0614L165.264 12.9251H170.639L174.184 33.8125H168.782L166.982 21.7898L162.051 33.8125H159.89L155.208 21.7898L153.408 33.8125H148.006ZM182.157 26.6654C182.157 27.1271 182.241 27.5611 182.407 27.9674C182.573 28.3552 182.795 28.6968 183.072 28.9923C183.367 29.2878 183.709 29.5187 184.097 29.6849C184.503 29.8511 184.937 29.9342 185.399 29.9342C185.842 29.9342 186.257 29.8511 186.645 29.6849C187.051 29.5187 187.393 29.2878 187.67 28.9923C187.966 28.6968 188.196 28.3552 188.363 27.9674C188.547 27.5795 188.64 27.164 188.64 26.7208C188.64 26.2775 188.547 25.862 188.363 25.4742C188.196 25.0679 187.966 24.717 187.67 24.4215C187.393 24.126 187.051 23.8951 186.645 23.7289C186.257 23.5627 185.842 23.4796 185.399 23.4796C184.937 23.4796 184.503 23.5627 184.097 23.7289C183.709 23.8951 183.367 24.126 183.072 24.4215C182.795 24.717 182.573 25.0586 182.407 25.4465C182.241 25.8158 182.157 26.2221 182.157 26.6654ZM188.474 19.6013H193.515V33.8125H188.474V32.2335C187.402 33.5816 185.953 34.2557 184.124 34.2557C183.09 34.2557 182.139 34.0711 181.271 33.7017C180.403 33.3139 179.646 32.7783 178.999 32.095C178.353 31.4116 177.845 30.6083 177.476 29.6849C177.125 28.7615 176.949 27.755 176.949 26.6654C176.949 25.6496 177.125 24.6893 177.476 23.7843C177.827 22.8609 178.316 22.0576 178.944 21.3742C179.572 20.6909 180.32 20.1554 181.188 19.7675C182.056 19.3612 183.016 19.1581 184.069 19.1581C185.842 19.1581 187.31 19.7768 188.474 21.0141V19.6013ZM203.05 10.8197V24.7262L208.313 19.6013H215.183L208.064 26.1667L215.599 33.8125H208.562L203.05 28.0228V33.8125H198.035V10.8197H203.05ZM228.009 24.6431C227.843 23.9413 227.501 23.378 226.984 22.9533C226.467 22.5285 225.839 22.3161 225.1 22.3161C224.325 22.3161 223.687 22.5193 223.189 22.9256C222.709 23.3319 222.404 23.9044 222.275 24.6431H228.009ZM222.136 27.5518C222.136 29.7126 223.152 30.793 225.183 30.793C226.273 30.793 227.095 30.3497 227.649 29.4633H232.497C231.518 32.7136 229.071 34.3388 225.156 34.3388C223.955 34.3388 222.856 34.1634 221.859 33.8125C220.862 33.4431 220.003 32.926 219.283 32.2612C218.581 31.5963 218.036 30.8022 217.648 29.8788C217.261 28.9554 217.067 27.9212 217.067 26.7762C217.067 25.5942 217.251 24.5323 217.621 23.5904C217.99 22.6301 218.516 21.8175 219.2 21.1526C219.883 20.4878 220.705 19.9799 221.665 19.629C222.644 19.2597 223.743 19.075 224.962 19.075C226.162 19.075 227.243 19.2597 228.203 19.629C229.163 19.9799 229.976 20.497 230.641 21.1803C231.306 21.8637 231.813 22.704 232.164 23.7012C232.515 24.68 232.691 25.7881 232.691 27.0255V27.5518H222.136ZM236.665 19.6013H241.679V21.9283C242.214 21.0788 242.87 20.4324 243.646 19.9891C244.421 19.5274 245.326 19.2966 246.361 19.2966C246.49 19.2966 246.628 19.2966 246.776 19.2966C246.942 19.2966 247.127 19.3151 247.33 19.352V24.1445C246.665 23.812 245.945 23.6458 245.169 23.6458C244.006 23.6458 243.129 23.9967 242.538 24.6985C241.965 25.3818 241.679 26.3883 241.679 27.718V33.8125H236.665V19.6013Z" fill="white"/>
<rect y="2" width="43.672" height="43.672" rx="9.99666" fill="#160039"/>
<mask id="mask0_4180_6632" style="mask-type:alpha" maskUnits="userSpaceOnUse" x="6" y="15" width="16" height="17">
<path d="M21.0569 21.7288C22.3889 22.8621 22.1887 24.9747 20.6675 25.8376L10.5684 31.5666C8.64724 32.6565 6.35373 30.9216 6.87959 28.7764L9.78451 16.926C10.2305 15.1066 12.436 14.3936 13.8627 15.6075L21.0569 21.7288Z" fill="black"/>
</mask>
<g mask="url(#mask0_4180_6632)">
<g filter="url(#filter0_f_4180_6632)">
<ellipse cx="10.1797" cy="17.3996" rx="6.09577" ry="7.37487" transform="rotate(17.1414 10.1797 17.3996)" fill="#FF70C6"/>
</g>
<g filter="url(#filter1_f_4180_6632)">
<ellipse cx="8.71683" cy="27.7296" rx="6.09577" ry="7.37487" transform="rotate(17.1414 8.71683 27.7296)" fill="#7537FF"/>
</g>
</g>
<mask id="mask1_4180_6632" style="mask-type:alpha" maskUnits="userSpaceOnUse" x="13" y="10" width="25" height="28">
<path d="M15.0876 18.8592L13.9199 27.1224L30.7703 37.2091C32.3166 38.1347 34.3061 37.1843 34.5577 35.3999L37.6773 13.2737C37.9518 11.3269 35.9894 9.83028 34.1846 10.6099L15.0876 18.8592Z" fill="url(#paint0_linear_4180_6632)"/>
</mask>
<g mask="url(#mask1_4180_6632)">
<path d="M14.9802 18.7689L13.8125 27.0321L30.6629 37.1188C32.2091 38.0443 34.1987 37.0939 34.4502 35.3096L37.5699 13.1834C37.8444 11.2366 35.882 9.73995 34.0772 10.5196L14.9802 18.7689Z" fill="url(#paint1_linear_4180_6632)"/>
<g opacity="0.78" filter="url(#filter2_f_4180_6632)">
<ellipse cx="27.8802" cy="39.0195" rx="9.92395" ry="18.3762" transform="rotate(94.8406 27.8802 39.0195)" fill="#FF70C6"/>
</g>
</g>
<path d="M10.4189 22.4593C10.4189 22.4593 12.6802 21.8764 13.3251 21.3891C13.9701 20.9018 15.0893 18.8857 15.0893 18.8857C15.0893 18.8857 15.8572 21.1645 16.2904 21.7378C16.7235 22.3111 18.7221 23.6153 18.7221 23.6153C18.7221 23.6153 16.4783 24.0724 15.7617 24.6138C15.0451 25.1553 13.9212 27.1492 13.9212 27.1492C13.9212 27.1492 13.4813 24.8735 12.9939 24.2285C12.5066 23.5835 10.4189 22.4593 10.4189 22.4593Z" fill="#E4FB73"/>
<defs>
<filter id="filter0_f_4180_6632" x="-4.40416" y="1.7599" width="29.1677" height="31.279" filterUnits="userSpaceOnUse" color-interpolation-filters="sRGB">
<feFlood flood-opacity="0" result="BackgroundImageFix"/>
<feBlend mode="normal" in="SourceGraphic" in2="BackgroundImageFix" result="shape"/>
<feGaussianBlur stdDeviation="4.18255" result="effect1_foregroundBlur_4180_6632"/>
</filter>
<filter id="filter1_f_4180_6632" x="-5.86705" y="12.09" width="29.1677" height="31.279" filterUnits="userSpaceOnUse" color-interpolation-filters="sRGB">
<feFlood flood-opacity="0" result="BackgroundImageFix"/>
<feBlend mode="normal" in="SourceGraphic" in2="BackgroundImageFix" result="shape"/>
<feGaussianBlur stdDeviation="4.18255" result="effect1_foregroundBlur_4180_6632"/>
</filter>
<filter id="filter2_f_4180_6632" x="1.18471" y="20.6437" width="53.3904" height="36.7517" filterUnits="userSpaceOnUse" color-interpolation-filters="sRGB">
<feFlood flood-opacity="0" result="BackgroundImageFix"/>
<feBlend mode="normal" in="SourceGraphic" in2="BackgroundImageFix" result="shape"/>
<feGaussianBlur stdDeviation="4.18255" result="effect1_foregroundBlur_4180_6632"/>
</filter>
<linearGradient id="paint0_linear_4180_6632" x1="27.8991" y1="12.8477" x2="17.9479" y2="54.5101" gradientUnits="userSpaceOnUse">
<stop stop-color="#56FFB8"/>
<stop offset="0.28993" stop-color="#7251FF" stop-opacity="0.71007"/>
<stop offset="1" stop-color="#9746FF" stop-opacity="0"/>
</linearGradient>
<linearGradient id="paint1_linear_4180_6632" x1="27.7917" y1="12.7574" x2="32.2996" y2="57.4156" gradientUnits="userSpaceOnUse">
<stop stop-color="#56FFB8"/>
<stop offset="0.279939" stop-color="#7251FF" stop-opacity="0.71007"/>
<stop offset="1" stop-color="#9746FF" stop-opacity="0"/>
</linearGradient>
</defs>
</svg>
